<svg xmlns="http://www.w3.org/2000/svg" width="92.876" height="64.098" viewBox="0 0 92.876 64.098">
  <g id="Group_566" data-name="Group 566" transform="translate(-54.566 -304.681)">
    <path id="Path_110" data-name="Path 110" d="M25.112,30.907l4.636-4.25a1.419,1.419,0,0,1,1.159-.386l.773.386L42.5,31.679c.773.386.773.773.773,1.545-.386,3.091-1.159,5.409-3.091,6.954a11.067,11.067,0,0,1-8.113,3.091,23.54,23.54,0,0,1-10.817-2.7c-3.863-1.932-4.6-2.235-10.118-7.231-3.434-4.04-4.949-5.9-6.495-8.995s-3.091-5.8-3.863-8.5A23.774,23.774,0,0,1,0,8.5,10.152,10.152,0,0,1,2.7,2.7C4.25,1.159,6.568.386,10.045,0A2.007,2.007,0,0,1,11.59.773l5.8,10.817a1.349,1.349,0,0,0,.386.773,1.419,1.419,0,0,1-.386,1.159l-5.022,4.636a1.724,1.724,0,0,0,0,1.932c1.159,2.318,3.091,4.25,4.636,6.181a39.008,39.008,0,0,0,6.181,5.022C23.953,31.679,24.725,31.679,25.112,30.907Z" transform="matrix(0.799, 0.602, -0.602, 0.799, 82.356, 306.432)" fill="none" stroke="#fff" stroke-width="2.5"/>
    <g id="Group_309" data-name="Group 309" transform="matrix(0.906, -0.423, 0.423, 0.906, -129.415, 76.877)">
      <rect id="Rectangle_1565" data-name="Rectangle 1565" width="41.517" height="25.769" rx="2" transform="translate(96.797 332.715)" fill="#fff"/>
      <path id="Rectangle_1567" data-name="Rectangle 1567" d="M.716,0H17.179a0,0,0,0,1,0,0V.716a.716.716,0,0,1-.716.716H.716A.716.716,0,0,1,0,.716v0A.716.716,0,0,1,.716,0Z" transform="translate(101.091 347.032)" fill="#2b88f1"/>
      <path id="Rectangle_1568" data-name="Rectangle 1568" d="M.716,0H17.179a0,0,0,0,1,0,0V.716a.716.716,0,0,1-.716.716H.716A.716.716,0,0,1,0,.716v0A.716.716,0,0,1,.716,0Z" transform="translate(101.091 349.895)" fill="#2b88f1"/>
      <path id="Rectangle_1569" data-name="Rectangle 1569" d="M.716,0H8.59a0,0,0,0,1,0,0V.716a.716.716,0,0,1-.716.716H.716A.716.716,0,0,1,0,.716v0A.716.716,0,0,1,.716,0Z" transform="translate(101.091 352.758)" fill="#2b88f1"/>
      <path id="Rectangle_1570" data-name="Rectangle 1570" d="M.716,0H5.726a0,0,0,0,1,0,0V.716a.716.716,0,0,1-.716.716H.716A.716.716,0,0,1,0,.716v0A.716.716,0,0,1,.716,0Z" transform="translate(112.544 352.758)" fill="#2b88f1"/>
      <rect id="Rectangle_1566" data-name="Rectangle 1566" width="5.726" height="7.158" rx="1" transform="translate(129.724 335.579)" fill="#2b88f1"/>
    </g>
  </g>
</svg>
