<svg xmlns="http://www.w3.org/2000/svg" width="84.14" height="148.995" viewBox="0 0 84.14 148.995">
  <g id="Group_565" data-name="Group 565" transform="translate(-53.766 13.565)">
    <path id="Path_692" data-name="Path 692" d="M4,0H80.14a4,4,0,0,1,4,4V145a4,4,0,0,1-4,4H4a4,4,0,0,1-4-4V4A4,4,0,0,1,4,0Z" transform="translate(53.766 -13.565)" fill="#fff"/>
    <g id="Group_310" data-name="Group 310" transform="translate(62.791 90.238)">
      <path id="Path_1" data-name="Path 1" d="M-1.232,0-9.56,27.494H7.832l6.682-6.863H-.576L3.594,6.863H18.685L16.16,0ZM3.913,10.315,1.835,17.179h5.03l6.683-6.863Z" transform="translate(9.56 0.95)" fill="#0d2134"/>
      <path id="Path_8" data-name="Path 8" d="M-3.867-4.213l5.32-17.564q-2.543,3.044-4.14,4.943-5.545,6.487-8.956,6.487-3.367,0-5-6.443-.617-2.471-1.175-4.986l-5.32,17.564H-30l6.937-22.9a7.845,7.845,0,0,1,2.767-3.927,6.853,6.853,0,0,1,4.288-1.633q3.794,0,5.768,7.414.666,2.869,1.375,5.737Q-6.795-22-4.681-24.469a48.3,48.3,0,0,1,5.393-5.56Q3.9-32.677,6.246-32.677a3.687,3.687,0,0,1,3.3,1.633,4.462,4.462,0,0,1,.388,3.927L3-4.213Z" transform="translate(54.651 32.677)" fill="#0d2134"/>
    </g>
    <text id="Express_Merchants" data-name="Express
Merchants" transform="translate(62.791 58.008)" fill="#0d2134" font-size="12" font-family="OpenSans-Bold, Open Sans" letter-spacing="-0.03em" opacity="0.999" font-weight="700"><tspan x="0" y="0">Express</tspan><tspan font-family="OpenSans, Open Sans" font-weight="400"><tspan x="0" y="13">Merchants</tspan></tspan></text>
    <line id="Line_28" data-name="Line 28" x2="64.031" transform="translate(63.406 81.333)" fill="none" stroke="#0d2134" stroke-width="1"/>
  </g>
</svg>
