<svg xmlns="http://www.w3.org/2000/svg" width="266.482" height="71.853" viewBox="0 0 266.482 71.853">
  <g id="Group_315" data-name="Group 315" transform="translate(302.482 -35.459)">
    <g id="Group_23" data-name="Group 23" transform="translate(-302.464 35.459)">
      <path id="Path_1" data-name="Path 1" d="M-.416,0-9.56,30.191h19.1l7.338-7.536H.306L4.884,7.536H21.455L18.682,0Zm5.65,11.327L2.952,18.864H8.475l7.338-7.536Z" transform="translate(9.56 0.001)" fill="#fff"/>
      <path id="Path_2" data-name="Path 2" d="M-1.307,0-9.138,8.238-12.027,0h-8.987l5.33,15.165-14.38,15.026h9.034l7.694-8.1,2.743,8.1h9.081L-6.7,15.165,7.681,0Z" transform="translate(56.839 0.001)" fill="#fff"/>
      <g id="Group_3" data-name="Group 3" transform="translate(57.902 0)">
        <path id="Path_3" data-name="Path 3" d="M-1.053-.959H-13.879l-2.75,9.081h-7.583L-17.8-13.036h7.582L-11.6-8.5h9.034l1.829-6.038H-17.35l2.282-7.536H5.341a2.541,2.541,0,0,1,2.037,1.31,2.789,2.789,0,0,1,.574,2.434L3.826-4.7A5.222,5.222,0,0,1,1.876-2.129,4.873,4.873,0,0,1-1.053-.959" transform="translate(24.212 22.07)" fill="#fff"/>
      </g>
      <g id="Group_4" data-name="Group 4" transform="translate(85.052 0)">
        <path id="Path_4" data-name="Path 4" d="M-.787-1.372l-3.147-9.081H-7.82l-2.75,9.081h-7.536L-11.7-22.53h7.536l-1.375,4.541H3.544l1.828-6.039H-11.245l2.282-7.536H11.447a2.542,2.542,0,0,1,2.036,1.311,2.783,2.783,0,0,1,.574,2.433L9.932-14.2a5.233,5.233,0,0,1-1.95,2.574,4.867,4.867,0,0,1-2.929,1.17l3.1,9.081Z" transform="translate(18.106 31.564)" fill="#fff"/>
      </g>
      <g id="Group_5" data-name="Group 5" transform="translate(112.855 0)">
        <path id="Path_5" data-name="Path 5" d="M-.82-.857H-6.343L-4.06-8.394H6.518ZM.243,10.47h-19.1l9.144-30.191h19.1l2.773,7.536H-4.41L-8.989,2.934H7.581Z" transform="translate(18.855 19.721)" fill="#fff"/>
      </g>
      <g id="Group_6" data-name="Group 6" transform="translate(141.819)">
        <path id="Path_6" data-name="Path 6" d="M-.276-.343.873-4.134a5.207,5.207,0,0,1,1.9-2.645A4.894,4.894,0,0,1,5.8-7.879H21.105L23.877-.343ZM13.271,22.313H-3.581l-2.772-7.536H9.188L.487,1.155H10.832q3.01,4.587,6.036,9.127,2.459,4.4,1.976,5.992l-.68,2.247a5.271,5.271,0,0,1-1.931,2.668,4.841,4.841,0,0,1-2.961,1.124" transform="translate(6.353 7.879)" fill="#fff"/>
      </g>
      <g id="Group_7" data-name="Group 7" transform="translate(169.249)">
        <path id="Path_7" data-name="Path 7" d="M-.276-.343.873-4.134a5.207,5.207,0,0,1,1.9-2.645A4.9,4.9,0,0,1,5.8-7.879H21.105L23.877-.343ZM13.271,22.313H-3.58l-2.773-7.536H9.188L.488,1.155H10.832q3.01,4.587,6.036,9.127,2.459,4.4,1.976,5.992l-.68,2.247a5.271,5.271,0,0,1-1.931,2.668,4.841,4.841,0,0,1-2.961,1.124" transform="translate(6.353 7.879)" fill="#fff"/>
      </g>
    </g>
    <g id="Group_8" data-name="Group 8" transform="translate(-302.483 76.055)">
      <path id="Path_8" data-name="Path 8" d="M-1.3-1.421,4.537-20.707Q1.745-17.364-.009-15.28-6.1-8.156-9.843-8.156q-3.7,0-5.487-7.075-.677-2.713-1.29-5.475L-22.462-1.421H-30l7.618-25.151a8.614,8.614,0,0,1,3.038-4.312,7.525,7.525,0,0,1,4.709-1.793q4.167,0,6.334,8.141.732,3.151,1.509,6.3Q-4.519-20.95-2.2-23.664a53.041,53.041,0,0,1,5.922-6.106q3.5-2.908,6.077-2.908a4.048,4.048,0,0,1,3.622,1.793,4.9,4.9,0,0,1,.426,4.312L6.232-1.421Z" transform="translate(29.998 32.677)" fill="#fff"/>
    </g>
    <g id="Group_9" data-name="Group 9" transform="translate(-263.257 76.055)">
      <path id="Path_9" data-name="Path 9" d="M-.825-.888H-6.348l2.363-7.8H6.593ZM.117,10.839h-19.1l9.467-31.256h19.1l2.692,7.8H-4.294L-9.035,3.038H7.535Z" transform="translate(18.981 20.417)" fill="#fff"/>
    </g>
    <g id="Group_10" data-name="Group 10" transform="translate(-237.047 76.055)">
      <path id="Path_10" data-name="Path 10" d="M-.787-1.421l-3.05-9.4H-7.723l-2.847,9.4h-7.536l6.634-21.9h7.536l-1.423,4.7h9.08l1.894-6.251H-11l2.364-7.8H11.769a2.5,2.5,0,0,1,2.023,1.357,2.941,2.941,0,0,1,.547,2.519L10.068-14.7a5.482,5.482,0,0,1-1.977,2.665A4.824,4.824,0,0,1,5.15-10.821l3,9.4Z" transform="translate(18.106 32.677)" fill="#fff"/>
    </g>
    <g id="Group_11" data-name="Group 11" transform="translate(-208.635 76.055)">
      <path id="Path_11" data-name="Path 11" d="M-.277-.355.912-4.28A5.464,5.464,0,0,1,2.856-6.994,4.842,4.842,0,0,1,5.877-8.157H21.183l2.693,7.8ZM11.717,23.1H-3.59a2.591,2.591,0,0,1-2.316-1.163,3.136,3.136,0,0,1-.287-2.761L-.747,1.2H6.835L2.565,15.3H19.135Z" transform="translate(6.379 8.157)" fill="#fff"/>
    </g>
    <g id="Group_12" data-name="Group 12" transform="translate(-184.355 76.055)">
      <path id="Path_12" data-name="Path 12" d="M-.755-1.421,2.8-13.148H-4.739l2.363-7.8H5.16L8.712-32.677h7.536L6.781-1.421Zm-16.617,0,9.467-31.256H-.323L-9.789-1.421Z" transform="translate(17.372 32.677)" fill="#fff"/>
    </g>
    <g id="Group_13" data-name="Group 13" transform="translate(-159.049 76.055)">
      <path id="Path_13" data-name="Path 13" d="M-.957-1.421l1.424-4.7H-8.661l-4.372,4.7h-8.988L4.305-29.769a7.973,7.973,0,0,1,5.889-2.908,4.025,4.025,0,0,1,3.592,1.817,4.861,4.861,0,0,1,.456,4.288l-3.36,11.1H3.3l1.585-5.233-6.361,6.784h11.89L6.626-1.421Z" transform="translate(22.021 32.677)" fill="#fff"/>
    </g>
    <g id="Group_14" data-name="Group 14" transform="translate(-127.878 76.055)">
      <path id="Path_14" data-name="Path 14" d="M-1.036-1.421A3.934,3.934,0,0,1-5.163-4.328l-5.291-16.379L-16.3-1.421h-7.536l7.617-25.151a8.62,8.62,0,0,1,3.038-4.312,7.527,7.527,0,0,1,4.709-1.793,3.86,3.86,0,0,1,4.081,2.908L.9-13.39,6.746-32.677h7.582L6.712-7.526A8.62,8.62,0,0,1,3.673-3.213,7.526,7.526,0,0,1-1.036-1.421" transform="translate(23.831 32.677)" fill="#fff"/>
    </g>
    <g id="Group_16" data-name="Group 16" transform="translate(-89.875 76.055)">
      <path id="Path_16" data-name="Path 16" d="M-1-.355H-6.527l2.363-7.8H6.414ZM-22.666,23.1l7.1-23.454H-23.1l2.364-7.8H-5.662L-15.129,23.1Z" transform="translate(23.098 8.157)" fill="#fff"/>
    </g>
    <g id="Group_17" data-name="Group 17" transform="translate(-66.39 76.055)">
      <path id="Path_17" data-name="Path 17" d="M-.283-.355.905-4.28A5.473,5.473,0,0,1,2.835-7.018,4.836,4.836,0,0,1,5.872-8.157H21.178l2.692,7.8ZM13.022,23.1H-3.829l-2.692-7.8H9.019L.465,1.2H10.809q2.961,4.751,5.938,9.45,2.41,4.555,1.912,6.2l-.7,2.326A5.537,5.537,0,0,1,16,21.936,4.79,4.79,0,0,1,13.022,23.1" transform="translate(6.521 8.157)" fill="#fff"/>
    </g>
  </g>
</svg>
