<svg xmlns="http://www.w3.org/2000/svg" width="56" height="75.423" viewBox="0 0 56 75.423">
  <g id="Group_567" data-name="Group 567" transform="translate(-1295.566 -502.788)">
    <rect id="Rectangle_1803" data-name="Rectangle 1803" width="56" height="75.423" rx="4" transform="translate(1295.566 502.788)" fill="#0d2134"/>
    <g id="Group_429" data-name="Group 429" transform="translate(1307.876 515.077)">
      <g id="Rectangle_1510" data-name="Rectangle 1510" fill="none" stroke="#fff" stroke-width="3">
        <rect width="31.802" height="29.119" rx="4" stroke="none"/>
        <rect x="1.5" y="1.5" width="28.802" height="26.119" rx="2.5" fill="none"/>
      </g>
      <g id="Rectangle_1511" data-name="Rectangle 1511" transform="translate(21.27 4.45)" fill="#fff" stroke="#fff" stroke-width="1">
        <rect width="5.815" height="3.717" stroke="none"/>
        <rect x="0.5" y="0.5" width="4.815" height="2.717" fill="none"/>
      </g>
      <g id="Ellipse_239" data-name="Ellipse 239" transform="translate(8.259 7.786)" fill="none" stroke="#fff" stroke-width="2">
        <circle cx="7.435" cy="7.435" r="7.435" stroke="none"/>
        <circle cx="7.435" cy="7.435" r="6.435" fill="none"/>
      </g>
    </g>
    <path id="Path_786" data-name="Path 786" d="M-11.893-6.425v4.157a2.4,2.4,0,0,1-.319,1.248,2.074,2.074,0,0,1-.921.822,3.292,3.292,0,0,1-1.424.286,2.726,2.726,0,0,1-1.925-.635,2.253,2.253,0,0,1-.686-1.738v-4.14h1.358v3.933a1.647,1.647,0,0,0,.3,1.09,1.242,1.242,0,0,0,.989.347,1.215,1.215,0,0,0,.969-.349,1.656,1.656,0,0,0,.3-1.1V-6.425ZM-9.228-3.4h.448a1.493,1.493,0,0,0,.94-.248.869.869,0,0,0,.312-.723.891.891,0,0,0-.261-.708,1.225,1.225,0,0,0-.82-.229h-.62Zm3.076-1.02A1.964,1.964,0,0,1-6.8-2.834a2.772,2.772,0,0,1-1.844.549h-.584V0H-10.59V-6.425h2.052a2.73,2.73,0,0,1,1.778.5A1.835,1.835,0,0,1-6.152-4.421ZM-5.209,0V-6.425h1.362v5.3H-1.24V0ZM5.257-3.221A3.486,3.486,0,0,1,4.466-.769,2.932,2.932,0,0,1,2.2.088,2.932,2.932,0,0,1-.069-.769,3.5,3.5,0,0,1-.86-3.23,3.452,3.452,0,0,1-.067-5.68a2.966,2.966,0,0,1,2.274-.846,2.925,2.925,0,0,1,2.265.853A3.5,3.5,0,0,1,5.257-3.221Zm-4.689,0A2.684,2.684,0,0,0,.977-1.6,1.43,1.43,0,0,0,2.2-1.055q1.63,0,1.63-2.167T2.207-5.392a1.44,1.44,0,0,0-1.226.547A2.672,2.672,0,0,0,.568-3.221ZM10.072,0,9.606-1.529H7.263L6.8,0H5.33L7.6-6.451H9.263L11.539,0ZM9.281-2.672Q8.635-4.75,8.553-5.023t-.116-.431q-.145.563-.831,2.782Zm8.128-.6a3.164,3.164,0,0,1-.9,2.43A3.683,3.683,0,0,1,13.9,0H12.078V-6.425H14.1a3.4,3.4,0,0,1,2.443.831A3.055,3.055,0,0,1,17.408-3.274Zm-1.415.035q0-2.07-1.828-2.07H13.44v4.184h.584Q15.993-1.125,15.993-3.239ZM-7.3,4.6h.448a1.493,1.493,0,0,0,.94-.248A.869.869,0,0,0-5.6,3.627a.891.891,0,0,0-.261-.708,1.225,1.225,0,0,0-.82-.229H-7.3Zm3.076-1.02a1.964,1.964,0,0,1-.648,1.586,2.772,2.772,0,0,1-1.844.549H-7.3V8H-8.66V1.575h2.052a2.73,2.73,0,0,1,1.778.5A1.835,1.835,0,0,1-4.221,3.579Zm6.774,1.2a3.486,3.486,0,0,1-.791,2.452,2.932,2.932,0,0,1-2.268.857,2.932,2.932,0,0,1-2.268-.857A3.5,3.5,0,0,1-3.564,4.77a3.452,3.452,0,0,1,.793-2.45A2.966,2.966,0,0,1-.5,1.474a2.925,2.925,0,0,1,2.265.853A3.5,3.5,0,0,1,2.553,4.779Zm-4.689,0A2.684,2.684,0,0,0-1.727,6.4a1.43,1.43,0,0,0,1.222.545q1.63,0,1.63-2.167T-.5,2.608a1.44,1.44,0,0,0-1.226.547A2.672,2.672,0,0,0-2.136,4.779ZM8.945,4.726a3.164,3.164,0,0,1-.9,2.43A3.683,3.683,0,0,1,5.434,8H3.615V1.575H5.632a3.4,3.4,0,0,1,2.443.831A3.055,3.055,0,0,1,8.945,4.726ZM7.53,4.761q0-2.07-1.828-2.07H4.977V6.875h.584Q7.53,6.875,7.53,4.761Z" transform="translate(1323.566 559)" fill="#fff"/>
  </g>
</svg>
